<svg width="874" height="874" viewBox="0 0 874 874" fill="none" xmlns="http://www.w3.org/2000/svg">
<g clip-path="url(#clip0_2002_616)">
<path d="M118.328 674.725L405.31 840.071C426.514 852.305 446.256 852.676 468.191 840.071L755.174 674.725C789.173 655.076 807.816 635.057 807.816 581.3V287.68C807.816 246.53 791.734 223.173 761.754 205.748L503.287 56.7147C458.321 30.3921 414.451 30.7623 370.214 56.7147L111.747 205.748C81.769 223.173 65.6841 246.53 65.6841 287.68V581.3C65.6841 635.057 84.3287 655.076 118.328 674.725ZM436.75 410.392L158.177 250.607L396.171 112.694C423.955 96.753 448.815 96.3828 477.33 112.694L715.326 250.607L436.75 410.392ZM152.693 622.822C131.855 610.958 124.909 599.465 124.909 579.446V302.879L406.042 465.631V768.891L152.693 622.822ZM720.809 622.822L467.46 768.891V465.631L748.593 302.879V579.446C748.593 599.465 741.645 610.958 720.809 622.822Z" fill="url(#paint0_linear_2002_616)"/>
<ellipse cx="443.015" cy="250.057" rx="38.4841" ry="22.3688" fill="url(#paint1_linear_2002_616)"/>
<path d="M439.435 175.57C470.008 175.57 497.182 184.53 516.405 198.402C535.644 212.285 546.164 230.392 546.164 249.163C546.164 267.934 535.644 286.041 516.405 299.924C497.182 313.795 470.008 322.756 439.435 322.756C408.861 322.756 381.688 313.795 362.465 299.924C343.226 286.041 332.706 267.934 332.705 249.163C332.705 230.392 343.226 212.285 362.465 198.402C381.688 184.53 408.861 175.57 439.435 175.57Z" stroke="url(#paint2_linear_2002_616)" stroke-width="24.6056"/>
</g>
<defs>
<linearGradient id="paint0_linear_2002_616" x1="436.75" y1="36.1987" x2="436.75" y2="849.386" gradientUnits="userSpaceOnUse">
<stop stop-color="white"/>
<stop offset="1" stop-color="white" stop-opacity="0.5"/>
</linearGradient>
<linearGradient id="paint1_linear_2002_616" x1="443.015" y1="227.638" x2="443.015" y2="272.426" gradientUnits="userSpaceOnUse">
<stop stop-color="white"/>
<stop offset="1" stop-color="white" stop-opacity="0.5"/>
</linearGradient>
<linearGradient id="paint2_linear_2002_616" x1="439.435" y1="163.074" x2="439.435" y2="335.059" gradientUnits="userSpaceOnUse">
<stop stop-color="white"/>
<stop offset="1" stop-color="white" stop-opacity="0.5"/>
</linearGradient>
<clipPath id="clip0_2002_616">
<rect width="873.5" height="873.5" fill="white"/>
</clipPath>
</defs>
</svg>
